<svg xmlns="http://www.w3.org/2000/svg" width="420" height="820" viewBox="0 0 420 820" role="img" aria-label="Agent Hub Android app showing Codex relay chat">
  <rect width="420" height="820" fill="#08090b"/>
  <text x="28" y="44" fill="#ffffff" font-family="Arial, sans-serif" font-size="18">10:26</text>
  <circle cx="36" cy="92" r="8" fill="#4ade80"/>
  <text x="54" y="101" fill="#ffffff" font-family="Arial, sans-serif" font-size="30" font-weight="700">Codex</text>
  <circle cx="154" cy="92" r="6" fill="#8b5cf6"/>
  <text x="166" y="98" fill="#b8a7ff" font-family="Arial, sans-serif" font-size="14">Relay</text>
  <text x="210" y="84" fill="#b8a7ff" font-family="Arial, sans-serif" font-size="14">gpt-5.5</text>
  <text x="304" y="100" fill="#9ca3af" font-family="Arial, sans-serif" font-size="18">CHAT</text>
  <text x="354" y="100" fill="#9ca3af" font-family="Arial, sans-serif" font-size="22">R</text>
  <text x="386" y="100" fill="#9ca3af" font-family="Arial, sans-serif" font-size="22">S</text>

  <rect x="18" y="130" width="384" height="276" rx="18" fill="#17181d"/>
  <text x="34" y="158" fill="#a78bfa" font-family="Arial, sans-serif" font-size="15">Chats</text>
  <circle cx="44" cy="206" r="7" fill="#4ade80"/>
  <text x="74" y="209" fill="#ffffff" font-family="Arial, sans-serif" font-size="17">Train LoRA for LFM2.5-8B</text>
  <text x="74" y="236" fill="#7b7f8a" font-family="Arial, sans-serif" font-size="12">model_ablation - C:\Users\USER\.vscode\model_ablation</text>
  <text x="348" y="220" fill="#b8a7ff" font-family="Arial, sans-serif" font-size="12">Codex</text>
  <circle cx="44" cy="282" r="7" fill="#4ade80"/>
  <text x="74" y="285" fill="#ffffff" font-family="Arial, sans-serif" font-size="17">Monitor Kaggle run and pull outputs</text>
  <text x="74" y="312" fill="#7b7f8a" font-family="Arial, sans-serif" font-size="12">model_ablation - C:\Users\USER\.vscode\model_ablation</text>
  <text x="348" y="296" fill="#b8a7ff" font-family="Arial, sans-serif" font-size="12">Codex</text>
  <rect x="30" y="330" width="360" height="74" rx="10" fill="#3b2f79"/>
  <circle cx="48" cy="368" r="7" fill="#4ade80"/>
  <text x="78" y="360" fill="#ffffff" font-family="Arial, sans-serif" font-size="17">Fix lid-close persistence</text>
  <text x="78" y="386" fill="#b9aecf" font-family="Arial, sans-serif" font-size="12">vibe_app_slop - C:\Users\USER\.vscode\vibe_app_slop</text>
  <text x="348" y="374" fill="#d8ccff" font-family="Arial, sans-serif" font-size="12">Codex</text>

  <rect x="18" y="430" width="384" height="294" rx="18" fill="#1e1e24"/>
  <rect x="44" y="456" width="304" height="110" rx="8" fill="#15161a"/>
  <text x="58" y="488" fill="#ffffff" font-family="Arial, sans-serif" font-size="15">phone-style join worked, relay showed online,</text>
  <text x="58" y="518" fill="#ffffff" font-family="Arial, sans-serif" font-size="15">and Codex session listing returned 23 chats.</text>
  <rect x="250" y="588" width="130" height="58" rx="12" fill="#5b46c4"/>
  <text x="270" y="623" fill="#ffffff" font-family="Arial, sans-serif" font-size="15">yeah it works broo</text>
  <rect x="44" y="664" width="304" height="50" rx="8" fill="#15161a"/>
  <text x="58" y="694" fill="#ffffff" font-family="Arial, sans-serif" font-size="15">Keep the same Render URL; swap code/agent.</text>

  <circle cx="52" cy="766" r="34" fill="#1e1e24"/>
  <text x="35" y="774" fill="#a7f3d0" font-family="Arial, sans-serif" font-size="18">MIC</text>
  <circle cx="118" cy="766" r="34" fill="#1e1e24"/>
  <text x="108" y="774" fill="#b8a7ff" font-family="Arial, sans-serif" font-size="22">+</text>
  <rect x="158" y="732" width="172" height="68" rx="34" fill="#1e1e24"/>
  <text x="184" y="774" fill="#8f8f98" font-family="Arial, sans-serif" font-size="18">Prompt Fix lid-close</text>
  <circle cx="370" cy="766" r="38" fill="#8b5cf6"/>
  <text x="358" y="780" fill="#ffffff" font-family="Arial, sans-serif" font-size="34">&gt;</text>
</svg>
